<?xml version="1.0" encoding="UTF-8"?><svg fill="none" viewBox="0 0 32 32" xmlns="http://www.w3.org/2000/svg"><defs><linearGradient id="b" x1="4" x2="28" y1="6" y2="30" gradientUnits="userSpaceOnUse"><stop stop-color="#FFAD60" offset="0"/><stop stop-color="#FF6B81" offset=".5"/><stop stop-color="#C86DD7" offset="1"/></linearGradient><radialGradient id="a" cx="16" cy="11" r="9" gradientUnits="userSpaceOnUse"><stop stop-color="#FFE3D1" offset="0"/><stop stop-color="#FF9FAF" offset=".5"/><stop stop-color="#FF6B81" offset="1"/></radialGradient><linearGradient id="d" x1="6" x2="26" y1="26" y2="30" gradientUnits="userSpaceOnUse"><stop stop-color="#7A4A2B" offset="0"/><stop stop-color="#4B2A1D" offset="1"/></linearGradient><filter id="c" x="-50%" y="-50%" width="200%" height="200%"><feDropShadow dx="0" dy="0" flood-color="#FF9FAF" flood-opacity=".5" stdDeviation="1.5"/></filter></defs><rect x="6" y="26" width="20" height="3" rx="1.5" fill="url(#d)"/><ellipse cx="16" cy="20" rx="8" ry="8.5" fill="url(#b)" opacity=".95"/><ellipse cx="8.5" cy="20" rx="3" ry="6" fill="url(#b)" opacity=".8"/><ellipse cx="23.5" cy="20" rx="3" ry="6" fill="url(#b)" opacity=".8"/><path d="m13 26-1 1.5m1-1.5 1 1.5m5-1.5-1 1.5m1-1.5 1 1.5" stroke="#FF9FAF" stroke-linecap="round" stroke-width="1.4"/><g filter="url(#c)"><ellipse cx="16" cy="11" rx="9" ry="7" fill="url(#a)"/><path d="m8 5c-1-2 2-3 4 0l0.5 4c-1.5-2-2.5-3-4.5-4z" fill="url(#a)"/><path d="m24 5c1-2-2-3-4 0l-0.5 4c1.5-2 2.5-3 4.5-4z" fill="url(#a)"/><circle cx="12.5" cy="11" r="3" fill="#fff"/><circle cx="19.5" cy="11" r="3" fill="#fff"/><circle cx="12.5" cy="11" r="1.6" fill="#1A1A1A"/><circle cx="19.5" cy="11" r="1.6" fill="#1A1A1A"/><circle cx="13.3" cy="10.3" r=".6" fill="#fff" opacity=".8"/><circle cx="20.3" cy="10.3" r=".6" fill="#fff" opacity=".8"/></g><path d="m16 15.5c-0.8 0-0.8-1.7 0-2 0.8 0.3 0.8 2 0 2z" fill="#FF6B81"/></svg>
